<svg xmlns="http://www.w3.org/2000/svg" viewBox="0 0 1200 760" role="img" aria-labelledby="title desc">
  <title id="title">魔法城堡探险地图</title>
  <desc id="desc">有魔法城堡、花圃、道路、池塘、树林、舞台、数字塔与图书塔的卡通冒险地图</desc>
  <defs>
    <linearGradient id="ground" x1="0" y1="0" x2="0" y2="760" gradientUnits="userSpaceOnUse"><stop stop-color="#bce6ff"/><stop offset=".28" stop-color="#d5efbe"/><stop offset="1" stop-color="#f5dda4"/></linearGradient>
    <linearGradient id="water" x1="0" y1="0" x2="1" y2="1"><stop stop-color="#9edff5"/><stop offset="1" stop-color="#5eafd9"/></linearGradient>
    <filter id="soft" x="-20%" y="-20%" width="140%" height="140%"><feDropShadow dx="0" dy="7" stdDeviation="6" flood-color="#52767a" flood-opacity=".18"/></filter>
  </defs>
  <rect width="1200" height="760" rx="46" fill="url(#ground)"/>
  <path d="M0 80C138 5 245 32 343 89c130 75 219 34 313-36 105-78 239-72 352 3 73 49 124 50 192 12v-68H0Z" fill="#d9eeff" opacity=".76"/>
  <g fill="#fff" opacity=".83"><path d="M116 92c19-25 55-21 67 5 28-12 53 8 49 30H77c-6-17 10-32 39-35Z"/><path d="M983 102c18-24 52-19 63 5 26-11 50 7 46 28H945c-5-16 9-30 38-33Z"/></g>
  <!-- winding golden road -->
  <path d="M-25 613C117 573 157 507 247 481c111-33 100-137 206-169 101-31 154 31 244 7 113-30 97-139 222-173 96-26 180 6 306 44" fill="none" stroke="#b8854b" stroke-width="43" stroke-linecap="round" opacity=".38"/>
  <path d="M-25 613C117 573 157 507 247 481c111-33 100-137 206-169 101-31 154 31 244 7 113-30 97-139 222-173 96-26 180 6 306 44" fill="none" stroke="#fff1bb" stroke-width="28" stroke-linecap="round"/>
  <path d="M-25 613C117 573 157 507 247 481c111-33 100-137 206-169 101-31 154 31 244 7 113-30 97-139 222-173 96-26 180 6 306 44" fill="none" stroke="#dbab67" stroke-width="4" stroke-dasharray="8 15" stroke-linecap="round"/>
  <!-- flower garden, top-left -->
  <g filter="url(#soft)"><path d="M54 186c48-58 142-66 191-9 35 41 18 126-37 154-72 37-161-10-166-83-2-25 3-45 12-62Z" fill="#f7bdd8"/><path d="M77 194c39-41 111-46 147-2 26 31 12 91-28 111-56 28-120-12-127-67-2-15 1-29 8-42Z" fill="#ffeac2"/></g>
  <g fill="#fff"><circle cx="99" cy="228" r="11"/><circle cx="166" cy="205" r="10"/><circle cx="202" cy="260" r="11"/></g><g fill="#ee6fae"><circle cx="99" cy="228" r="4"/><circle cx="166" cy="205" r="4"/><circle cx="202" cy="260" r="4"/></g>
  <!-- pond, top-right -->
  <g filter="url(#soft)"><path d="M903 158c55-54 185-42 223 21 34 57-11 143-88 154-83 12-151-43-143-107 2-27-3-43 8-68Z" fill="url(#water)" stroke="#5d9fc4" stroke-width="8"/><path d="M932 192c41-23 112-15 143 17" fill="none" stroke="#d8f8ff" stroke-width="9" stroke-linecap="round"/></g>
  <path d="M1022 286c11-24 36-26 48-1-18 4-30 15-41 31-10-11-12-20-7-30Z" fill="#7ac58b"/>
  <!-- forest, middle-left -->
  <g filter="url(#soft)"><path d="M79 420c31-50 99-52 122-9 12-44 76-55 102-12 39-21 86 16 73 61 36 8 49 56 20 84H73c-30-35-20-94 6-124Z" fill="#6cae79"/><g fill="#99d58a"><circle cx="123" cy="424" r="35"/><circle cx="188" cy="400" r="40"/><circle cx="254" cy="430" r="39"/><circle cx="321" cy="454" r="36"/></g></g>
  <!-- central castle -->
  <g filter="url(#soft)" stroke="#5a4d9e" stroke-linejoin="round"><path d="M472 386h255v98H472z" fill="#ada5f1" stroke-width="8"/><path d="M494 386V274l47-47 47 47v112Zm91 0V233l54-64 54 64v153Zm91 0V274l47-47 47 47v112Z" fill="#c4bcff" stroke-width="8"/><path d="m511 227 30-72 30 72zm98-58 30-76 30 76zm98 58 30-72 30 72z" fill="#f7d26e" stroke-width="8"/><path d="M604 484v-54c0-30 70-30 70 0v54Z" fill="#574593" stroke-width="8"/></g><g fill="#fff2a2"><rect x="520" y="310" width="21" height="28" rx="9"/><rect x="628" y="261" width="22" height="30" rx="10"/><rect x="697" y="310" width="21" height="28" rx="9"/></g>
  <!-- number tower -->
  <g filter="url(#soft)" stroke="#946229" stroke-linejoin="round"><path d="M838 431h122v78H838z" fill="#ffd77a" stroke-width="8"/><path d="M856 431V266l43-57 43 57v165Z" fill="#f7c560" stroke-width="8"/><path d="m870 266 29-75 29 75z" fill="#a38fe5" stroke-width="8"/><path d="M884 509v-47c0-20 30-20 30 0v47Z" fill="#6b54aa" stroke-width="7"/></g><circle cx="899" cy="352" r="18" fill="#fff4ba"/><text x="899" y="360" text-anchor="middle" font-family="sans-serif" font-size="22" font-weight="800" fill="#946229">3</text>
  <!-- stage, bottom-left -->
  <g filter="url(#soft)"><path d="M222 616h174l-17 72H239z" fill="#8e6cd2"/><path d="M213 616c35-62 135-62 192 0Z" fill="#f59dc4"/><path d="M242 603c27-45 94-45 123 0" fill="none" stroke="#fff3ba" stroke-width="9" stroke-linecap="round"/><circle cx="275" cy="619" r="8" fill="#fff2a5"/><circle cx="341" cy="619" r="8" fill="#fff2a5"/></g>
  <!-- library, bottom-right -->
  <g filter="url(#soft)" stroke="#806043" stroke-linejoin="round"><path d="M945 594h151v92H945z" fill="#f4d0a7" stroke-width="8"/><path d="M962 594V499l58-42 58 42v95Z" fill="#fff0cf" stroke-width="8"/><path d="m976 499 44-66 44 66z" fill="#e583a5" stroke-width="8"/><path d="M996 686v-50c0-25 48-25 48 0v50Z" fill="#926a53" stroke-width="7"/></g><path d="M975 548h89" stroke="#c07763" stroke-width="8" stroke-linecap="round"/><path d="M988 531h65" stroke="#c07763" stroke-width="8" stroke-linecap="round"/>
  <!-- tiny decorative trees, rocks, sparkles -->
  <g fill="#79b670"><circle cx="430" cy="150" r="23"/><circle cx="456" cy="162" r="20"/><circle cx="772" cy="183" r="26"/><circle cx="796" cy="165" r="20"/></g><g fill="#8c795d" opacity=".54"><ellipse cx="451" cy="563" rx="19" ry="10"/><ellipse cx="760" cy="554" rx="14" ry="8"/></g><g fill="#fff7bb"><path d="m402 246 4 10 11 4-11 4-4 11-4-11-11-4 11-4z"/><path d="m769 382 4 10 11 4-11 4-4 11-4-11-11-4 11-4z"/><path d="m1090 433 3 8 9 3-9 3-3 9-3-9-9-3 9-3z"/></g>
</svg>
